# Blender v2.79 (sub 0) OBJ File: 'Flowers.blend'
# www.blender.org
mtllib Mushroom_02_Base.mtl
o Mushroom_02_Base_Circle.005
v -0.058881 0.000000 0.000000
v -0.041635 0.000000 0.041635
v -0.000000 0.000000 0.058881
v 0.041635 0.000000 0.041635
v 0.058881 0.000000 0.000000
v 0.041635 0.000000 -0.041635
v -0.000000 0.000000 -0.058881
v -0.041635 0.000000 -0.041635
v -0.065480 0.017231 0.000000
v -0.046301 0.017231 0.046301
v -0.000000 0.017231 0.065480
v 0.046301 0.017231 0.046301
v 0.065480 0.017231 0.000000
v 0.046301 0.017231 -0.046301
v -0.000000 0.017231 -0.065479
v -0.046301 0.017231 -0.046301
v -0.061287 0.333863 0.000000
v -0.043336 0.333863 0.043336
v -0.000000 0.333863 0.061287
v 0.043336 0.333863 0.043336
v 0.061287 0.333863 0.000000
v 0.043336 0.333863 -0.043336
v 0.000000 0.333863 -0.061287
v -0.043336 0.333863 -0.043336
v -0.071806 0.382110 0.000000
v -0.050774 0.382110 0.050774
v -0.000000 0.382110 0.071806
v 0.050774 0.382110 0.050774
v 0.071806 0.382110 0.000000
v 0.050774 0.382110 -0.050774
v 0.000000 0.382110 -0.071806
v -0.050774 0.382110 -0.050774
v -0.040935 0.133826 -0.040935
v 0.057890 0.133826 0.000000
v -0.057890 0.133826 0.000000
v -0.040935 0.133826 0.040935
v 0.040935 0.133826 -0.040935
v -0.000000 0.133826 0.057890
v -0.000000 0.133826 -0.057890
v 0.040935 0.133826 0.040935
v -0.237848 0.368210 0.000000
v -0.219743 0.368210 0.091021
v -0.168184 0.368210 0.168184
v -0.091021 0.368210 0.219743
v -0.000000 0.368210 0.237848
v 0.091021 0.368210 0.219743
v 0.168184 0.368210 0.168184
v 0.219743 0.368210 0.091021
v 0.237848 0.368210 0.000000
v 0.219743 0.368210 -0.091020
v 0.168184 0.368210 -0.168184
v 0.091021 0.368210 -0.219743
v 0.000000 0.368210 -0.237848
v -0.091021 0.368210 -0.219743
v -0.168184 0.368210 -0.168184
v -0.219743 0.368210 -0.091020
v -0.241928 0.404200 0.000000
v -0.223512 0.404200 0.092582
v -0.171069 0.404200 0.171069
v -0.092582 0.404200 0.223512
v -0.000000 0.404200 0.241928
v 0.092582 0.404200 0.223512
v 0.171069 0.404200 0.171069
v 0.223512 0.404200 0.092582
v 0.241928 0.404200 0.000000
v 0.223512 0.404200 -0.092582
v 0.171069 0.404200 -0.171069
v 0.092582 0.404200 -0.223512
v 0.000000 0.404200 -0.241928
v -0.092582 0.404200 -0.223512
v -0.171069 0.404200 -0.171069
v -0.223512 0.404200 -0.092582
v -0.132485 0.508448 0.000000
v -0.122400 0.508448 0.050700
v -0.093681 0.508448 0.093681
v -0.050700 0.508448 0.122400
v -0.000000 0.508448 0.132485
v 0.050700 0.508448 0.122400
v 0.093681 0.508448 0.093681
v 0.122400 0.508448 0.050700
v 0.132485 0.508448 0.000000
v 0.122400 0.508448 -0.050700
v 0.093681 0.508448 -0.093681
v 0.050700 0.508448 -0.122400
v 0.000000 0.508448 -0.132485
v -0.050700 0.508448 -0.122400
v -0.093681 0.508448 -0.093681
v -0.122400 0.508448 -0.050700
v -0.100043 0.580287 0.000000
v -0.092428 0.580287 0.038285
v -0.070741 0.580287 0.070741
v -0.038285 0.580287 0.092428
v -0.000000 0.580287 0.100043
v 0.038285 0.580287 0.092428
v 0.070741 0.580287 0.070741
v 0.092428 0.580287 0.038285
v 0.100043 0.580287 0.000000
v 0.092428 0.580287 -0.038285
v 0.070741 0.580287 -0.070741
v 0.038285 0.580287 -0.092428
v 0.000000 0.580287 -0.100043
v -0.038285 0.580287 -0.092428
v -0.070741 0.580287 -0.070741
v -0.092428 0.580287 -0.038285
v -0.000000 0.601272 0.000000
v -0.000000 -0.007466 0.000000
v 0.159233 0.382081 -0.159233
v -0.086176 0.382081 0.208048
v 0.086176 0.382081 -0.208048
v -0.000000 0.382081 0.225189
v 0.000000 0.382081 -0.225189
v 0.086176 0.382081 0.208048
v -0.086176 0.382081 -0.208048
v 0.159233 0.382081 0.159233
v -0.159233 0.382081 -0.159233
v 0.208048 0.382081 0.086176
v -0.208048 0.382081 -0.086176
v 0.225189 0.382081 0.000000
v -0.208048 0.382081 0.086176
v 0.208048 0.382081 -0.086176
v -0.159233 0.382081 0.159233
v -0.225189 0.382081 0.000000
v -0.071806 0.382110 0.000000
v -0.050774 0.382110 0.050774
v -0.000000 0.382110 0.071806
v 0.050774 0.382110 0.050774
v 0.071806 0.382110 0.000000
v 0.050774 0.382110 -0.050774
v 0.000000 0.382110 -0.071806
v -0.050774 0.382110 -0.050774
v 0.086176 0.382081 -0.208048
v 0.159233 0.382081 -0.159233
v -0.000000 0.382081 0.225189
v -0.086176 0.382081 0.208048
v 0.000000 0.382081 -0.225189
v 0.086176 0.382081 0.208048
v -0.086176 0.382081 -0.208048
v 0.159233 0.382081 0.159233
v -0.159233 0.382081 -0.159233
v 0.208048 0.382081 0.086176
v -0.208048 0.382081 -0.086176
v 0.225189 0.382081 0.000000
v 0.208048 0.382081 -0.086176
v -0.159233 0.382081 0.159233
v -0.208048 0.382081 0.086176
v -0.225189 0.382081 0.000000
v 0.050511 0.233845 0.000000
v -0.035717 0.233845 0.035717
v 0.035717 0.233845 -0.035716
v -0.000000 0.233845 0.050511
v 0.000000 0.233845 -0.050511
v 0.035717 0.233845 0.035717
v -0.035717 0.233845 -0.035716
v -0.050511 0.233845 0.000000
v -0.046114 0.087016 -0.046114
v -0.065216 0.087016 0.000000
v 0.065215 0.087016 0.000000
v -0.046114 0.087016 0.046114
v 0.046114 0.087016 -0.046114
v -0.000000 0.087016 0.065216
v -0.000000 0.087016 -0.065215
v 0.046114 0.087016 0.046114
v 0.129722 0.544367 0.000000
v 0.119847 0.544367 0.049642
v -0.119847 0.544367 0.049642
v -0.129722 0.544367 0.000000
v -0.119847 0.544367 -0.049642
v 0.119847 0.544367 -0.049642
v -0.091727 0.544367 0.091727
v 0.091727 0.544367 -0.091727
v -0.049642 0.544367 0.119847
v 0.049642 0.544367 -0.119847
v -0.000000 0.544367 0.129722
v 0.000000 0.544367 -0.129722
v 0.049642 0.544367 0.119847
v -0.049642 0.544367 -0.119847
v 0.091727 0.544367 0.091727
v -0.091727 0.544367 -0.091727
vt 0.623750 0.060322
vt 0.623750 0.022537
vt 0.747500 0.022537
vt 0.747500 0.060322
vt 0.871250 0.022537
vt 0.871250 0.060322
vt 0.376250 0.022537
vt 0.376250 0.060322
vt 0.252500 0.060322
vt 0.252500 0.022537
vt 0.995000 0.022537
vt 0.995000 0.060322
vt 0.499999 0.022537
vt 0.499999 0.060322
vt 0.128750 0.022537
vt 0.128750 0.060322
vt 0.005000 0.060322
vt 0.005000 0.022537
vt 0.499999 0.334565
vt 0.499999 0.413213
vt 0.376249 0.413213
vt 0.376249 0.334565
vt 0.871250 0.177640
vt 0.747500 0.177640
vt 0.252500 0.177640
vt 0.128750 0.177640
vt 0.376249 0.177640
vt 0.615561 0.548745
vt 0.702838 0.512598
vt 0.739885 0.699292
vt 0.706979 0.721361
vt 0.548761 0.615543
vt 0.623749 0.334565
vt 0.623750 0.413213
vt 0.499999 0.177640
vt 0.623750 0.177640
vt 0.005000 0.177640
vt 0.995000 0.177640
vt 0.995000 0.255916
vt 0.871250 0.255916
vt 0.128750 0.334565
vt 0.128750 0.413213
vt 0.005000 0.413213
vt 0.005000 0.334565
vt 0.747500 0.334565
vt 0.747500 0.413213
vt 0.252500 0.334565
vt 0.252500 0.413213
vt 0.871250 0.334565
vt 0.871250 0.413213
vt 0.871250 0.497500
vt 0.747500 0.497500
vt 0.376249 0.497500
vt 0.252500 0.497500
vt 0.995000 0.413213
vt 0.995000 0.497500
vt 0.499999 0.497500
vt 0.623749 0.497500
vt 0.128750 0.497500
vt 0.005000 0.497500
vt 0.499999 0.255916
vt 0.376250 0.255916
vt 0.623750 0.002500
vt 0.252500 0.255916
vt 0.747500 0.255916
vt 0.128750 0.255916
vt 0.623750 0.255916
vt 0.005000 0.255916
vt 0.995000 0.334565
vt 0.951361 0.615556
vt 0.987503 0.702823
vt 0.800813 0.739864
vt 0.778754 0.706956
vt 0.884573 0.548758
vt 0.292780 0.535536
vt 0.285801 0.570126
vt 0.214241 0.570072
vt 0.207465 0.535438
vt 0.484796 0.703207
vt 0.464555 0.707437
vt 0.431892 0.628590
vt 0.448971 0.616945
vt 0.015022 0.703219
vt 0.035346 0.707086
vt 0.035257 0.792491
vt 0.014997 0.796698
vt 0.484903 0.796651
vt 0.464574 0.792813
vt 0.050824 0.616880
vt 0.068113 0.628232
vt 0.449217 0.883067
vt 0.431904 0.871732
vt 0.116957 0.550871
vt 0.128579 0.567972
vt 0.383116 0.949215
vt 0.371465 0.932110
vt 0.203268 0.515199
vt 0.296738 0.985006
vt 0.292523 0.964745
vt 0.296638 0.515233
vt 0.203242 0.985006
vt 0.207104 0.964675
vt 0.382904 0.550952
vt 0.371576 0.568240
vt 0.050757 0.883087
vt 0.067867 0.871445
vt 0.128213 0.931912
vt 0.116863 0.949217
vt 0.214090 0.930044
vt 0.285720 0.930078
vt 0.351902 0.597535
vt 0.097299 0.851899
vt 0.147924 0.902591
vt 0.402507 0.648140
vt 0.069925 0.785696
vt 0.429917 0.714264
vt 0.069967 0.714077
vt 0.429947 0.785863
vt 0.097416 0.647948
vt 0.402563 0.852042
vt 0.148093 0.597389
vt 0.351906 0.902688
vt 0.265804 0.827146
vt 0.294092 0.815223
vt 0.264804 0.672797
vt 0.234101 0.672973
vt 0.235107 0.827328
vt 0.293242 0.684374
vt 0.206674 0.815736
vt 0.315090 0.705947
vt 0.172894 0.765716
vt 0.184829 0.794116
vt 0.327023 0.734236
vt 0.172654 0.735004
vt 0.327224 0.764937
vt 0.184226 0.706654
vt 0.315661 0.793377
vt 0.205806 0.684868
vt 0.261247 0.691759
vt 0.282704 0.700534
vt 0.272191 0.717332
vt 0.257954 0.711304
vt 0.217234 0.799586
vt 0.200793 0.783236
vt 0.216994 0.771830
vt 0.227767 0.782826
vt 0.238668 0.808371
vt 0.241960 0.788849
vt 0.299173 0.716847
vt 0.283035 0.728345
vt 0.191824 0.761703
vt 0.211348 0.757572
vt 0.308147 0.738217
vt 0.288840 0.742665
vt 0.191576 0.738498
vt 0.210886 0.742124
vt 0.308262 0.761392
vt 0.288723 0.758114
vt 0.200347 0.717213
vt 0.217047 0.727831
vt 0.299499 0.782844
vt 0.282704 0.772339
vt 0.216676 0.700799
vt 0.228127 0.716977
vt 0.283194 0.799307
vt 0.271701 0.783176
vt 0.238062 0.691854
vt 0.242484 0.711177
vt 0.261832 0.808271
vt 0.257391 0.788973
vt 0.249947 0.750095
vt 0.128750 0.002500
vt 0.499999 0.002500
vt 0.995000 0.002500
vt 0.376250 0.002500
vt 0.871250 0.002500
vt 0.252500 0.002500
vt 0.747500 0.002500
vt 0.548764 0.884561
vt 0.512611 0.797287
vt 0.699313 0.760235
vt 0.721378 0.793145
vt 0.615563 0.951356
vt 0.987503 0.797275
vt 0.951361 0.884543
vt 0.793146 0.778740
vt 0.512610 0.702819
vt 0.884572 0.951341
vt 0.797303 0.987497
vt 0.760248 0.800810
vt 0.797303 0.512603
vt 0.702839 0.987503
vn -0.6965 -0.1725 0.6965
vn -0.4844 -0.7285 0.4844
vn 0.0000 -0.7285 0.6850
vn 0.0000 -0.1725 0.9850
vn 0.4844 -0.7285 0.4844
vn 0.6965 -0.1725 0.6965
vn -0.4844 -0.7285 -0.4844
vn -0.6965 -0.1725 -0.6965
vn 0.0000 -0.1725 -0.9850
vn 0.0000 -0.7285 -0.6850
vn 0.6850 -0.7285 0.0000
vn 0.9850 -0.1725 0.0000
vn -0.6850 -0.7285 0.0000
vn -0.9850 -0.1725 0.0000
vn 0.4844 -0.7285 -0.4844
vn 0.6965 -0.1725 -0.6965
vn -0.9998 -0.0172 0.0000
vn -0.9867 -0.1624 0.0000
vn -0.6977 -0.1624 -0.6977
vn -0.7070 -0.0172 -0.7070
vn 0.7049 0.0780 0.7049
vn 0.0000 0.0780 0.9969
vn 0.0000 0.0780 -0.9969
vn 0.7049 0.0780 -0.7049
vn -0.7049 0.0780 -0.7049
vn 0.0002 -1.0000 -0.0001
vn 0.0002 -1.0000 0.0000
vn 0.0001 -1.0000 -0.0001
vn -0.7070 -0.0172 0.7070
vn -0.6977 -0.1624 0.6977
vn -0.9969 0.0780 0.0000
vn -0.7049 0.0780 0.7049
vn 0.9969 0.0780 0.0000
vn 0.9933 0.1153 0.0000
vn 0.7024 0.1153 0.7024
vn 0.7070 -0.0172 -0.7070
vn 0.6977 -0.1624 -0.6977
vn 0.9867 -0.1624 0.0000
vn 0.9998 -0.0172 0.0000
vn 0.0000 -0.0172 0.9998
vn 0.0000 -0.1624 0.9867
vn 0.0000 -0.0172 -0.9998
vn 0.0000 -0.1624 -0.9867
vn 0.7070 -0.0172 0.7070
vn 0.6977 -0.1624 0.6977
vn 0.6908 -0.2130 0.6908
vn 0.0000 -0.2130 0.9770
vn -0.6908 -0.2130 -0.6908
vn 0.0000 -0.2130 -0.9770
vn 0.9770 -0.2130 0.0000
vn -0.9770 -0.2130 0.0000
vn -0.6908 -0.2130 0.6908
vn 0.6909 -0.2130 -0.6908
vn -0.9933 0.1153 0.0000
vn -0.7024 0.1153 -0.7024
vn 0.0000 -1.0000 0.0000
vn 0.0000 0.1153 -0.9933
vn 0.0000 0.1153 0.9933
vn 0.7024 0.1153 -0.7024
vn -0.7024 0.1153 0.7024
vn 0.0001 -1.0000 0.0002
vn 0.0000 -1.0000 0.0002
vn 0.0001 -1.0000 0.0001
vn 0.3729 -0.9149 0.1545
vn 0.8737 0.3248 0.3619
vn 0.6688 0.3248 0.6688
vn 0.2854 -0.9149 0.2854
vn -0.5223 -0.6741 0.5223
vn 0.2854 -0.9149 -0.2854
vn 0.3729 -0.9149 -0.1545
vn -0.6824 -0.6741 0.2826
vn 0.2827 -0.6741 -0.6824
vn -0.1545 -0.9149 0.3729
vn -0.2854 -0.9149 0.2854
vn 0.5223 -0.6741 -0.5223
vn -0.2827 -0.6741 0.6824
vn 0.1545 -0.9149 -0.3729
vn 0.0000 -0.6741 -0.7386
vn 0.0000 -0.9149 0.4036
vn 0.0000 -0.6741 0.7386
vn 0.0000 -0.9149 -0.4037
vn -0.2827 -0.6741 -0.6824
vn 0.1545 -0.9149 0.3729
vn 0.2827 -0.6741 0.6824
vn -0.1545 -0.9149 -0.3729
vn -0.5223 -0.6741 -0.5223
vn 0.5223 -0.6741 0.5223
vn -0.2854 -0.9149 -0.2854
vn -0.6824 -0.6741 -0.2827
vn 0.6824 -0.6741 0.2827
vn -0.3729 -0.9149 -0.1545
vn -0.7386 -0.6741 0.0000
vn 0.4036 -0.9149 0.0000
vn 0.6824 -0.6741 -0.2827
vn -0.3729 -0.9149 0.1545
vn -0.4036 -0.9149 0.0000
vn 0.7386 -0.6741 0.0000
vn -0.8737 0.3248 -0.3619
vn -0.6688 0.3248 -0.6688
vn 0.9457 0.3248 0.0000
vn -0.8737 0.3248 0.3619
vn -0.9457 0.3248 0.0000
vn 0.8737 0.3248 -0.3619
vn -0.6688 0.3248 0.6688
vn 0.6688 0.3248 -0.6688
vn -0.3619 0.3248 0.8737
vn 0.3619 0.3248 -0.8737
vn 0.0000 0.3248 0.9457
vn 0.0000 0.3248 -0.9457
vn 0.3619 0.3248 0.8737
vn -0.3619 0.3248 -0.8737
vn -0.6325 0.4471 -0.6325
vn -0.3423 0.4471 -0.8264
vn 0.8264 0.4471 0.3423
vn 0.6325 0.4471 0.6325
vn -0.8264 0.4471 -0.3423
vn 0.8945 0.4471 0.0000
vn -0.8945 0.4471 0.0000
vn 0.8264 0.4471 -0.3423
vn -0.6325 0.4471 0.6325
vn -0.8264 0.4471 0.3423
vn 0.6325 0.4471 -0.6325
vn -0.3423 0.4471 0.8264
vn 0.3423 0.4471 -0.8264
vn 0.0000 0.4471 0.8945
vn 0.0000 0.4471 -0.8945
vn 0.3423 0.4471 0.8264
vn 0.8612 0.3619 0.3567
vn 0.9322 0.3619 0.0000
vn 0.5461 0.8377 0.0000
vn 0.5045 0.8377 0.2090
vn -0.9322 0.3619 0.0000
vn -0.8612 0.3619 0.3567
vn -0.5045 0.8377 0.2090
vn -0.5461 0.8377 0.0000
vn -0.8612 0.3619 -0.3567
vn -0.5045 0.8377 -0.2090
vn 0.8612 0.3619 -0.3567
vn 0.5045 0.8377 -0.2090
vn -0.6592 0.3619 0.6592
vn -0.3861 0.8377 0.3861
vn 0.6592 0.3619 -0.6592
vn 0.3861 0.8377 -0.3861
vn -0.3567 0.3619 0.8612
vn -0.2090 0.8377 0.5045
vn 0.3567 0.3619 -0.8612
vn 0.2090 0.8377 -0.5045
vn 0.0000 0.3619 0.9322
vn 0.0000 0.8377 0.5461
vn 0.0000 0.3619 -0.9322
vn 0.0000 0.8377 -0.5461
vn 0.3567 0.3619 0.8612
vn 0.2090 0.8377 0.5045
vn -0.3567 0.3619 -0.8612
vn -0.2090 0.8377 -0.5045
vn 0.6592 0.3619 0.6592
vn 0.3861 0.8377 0.3861
vn -0.6592 0.3619 -0.6592
vn -0.3861 0.8377 -0.3861
vn 0.0000 1.0000 0.0000
vn -0.0001 -1.0000 -0.0002
vn 0.0000 -1.0000 -0.0002
vn -0.0001 -1.0000 -0.0001
vn -0.0001 -1.0000 0.0002
vn -0.0001 -1.0000 0.0001
vn 0.0001 -1.0000 -0.0002
vn -0.0002 -1.0000 0.0001
vn -0.0002 -1.0000 0.0000
vn 0.0002 -1.0000 0.0001
vn -0.0002 -1.0000 -0.0001
usemtl Mushroom_01
s 1
f 10/1/1 2/2/2 3/3/3 11/4/4
f 4/5/5 12/6/6 11/4/4 3/3/3
f 8/7/7 16/8/8 15/9/9 7/10/10
f 5/11/11 13/12/12 12/6/6 4/5/5
f 1/13/13 9/14/14 16/8/8 8/7/7
f 2/2/2 10/1/1 9/14/14 1/13/13
f 6/15/15 14/16/16 13/17/12 5/18/11
f 154/19/17 17/20/18 24/21/19 153/22/20
f 12/6/6 162/23/21 160/24/22 11/4/4
f 15/9/9 161/25/23 159/26/24 14/16/16
f 16/8/8 155/27/25 161/25/23 15/9/9
f 119/28/26 146/29/27 25/30/27 26/31/28 144/32/28
f 148/33/29 18/34/30 17/20/18 154/19/17
f 156/35/31 9/14/14 10/1/1 158/36/32
f 158/36/32 10/1/1 11/4/4 160/24/22
f 14/16/16 159/26/24 157/37/33 13/17/12
f 13/12/12 157/38/33 162/23/21 12/6/6
f 157/38/33 34/39/34 40/40/35 162/23/21
f 149/41/36 22/42/37 21/43/38 147/44/39
f 150/45/40 19/46/41 18/34/30 148/33/29
f 151/47/42 23/48/43 22/42/37 149/41/36
f 152/49/44 20/50/45 19/46/41 150/45/40
f 153/22/20 24/21/19 23/48/43 151/47/42
f 19/46/41 20/50/45 126/51/46 125/52/47
f 23/48/43 24/21/19 130/53/48 129/54/49
f 20/50/45 21/55/38 127/56/50 126/51/46
f 24/21/19 17/20/18 123/57/51 130/53/48
f 17/20/18 18/34/30 124/58/52 123/57/51
f 21/43/38 22/42/37 128/59/53 127/60/50
f 18/34/30 19/46/41 125/52/47 124/58/52
f 22/42/37 23/48/43 129/54/49 128/59/53
f 155/27/25 156/35/31 35/61/54 33/62/55
f 9/14/14 156/35/31 155/27/25 16/8/8
f 2/2/2 1/13/13 106/63/56
f 161/25/23 155/27/25 33/62/55 39/64/57
f 160/24/22 162/23/21 40/40/35 38/65/58
f 159/26/24 161/25/23 39/64/57 37/66/59
f 158/36/32 160/24/22 38/65/58 36/67/60
f 157/37/33 159/26/24 37/66/59 34/68/34
f 40/40/35 34/39/34 147/69/39 152/49/44
f 113/70/61 111/71/62 31/72/62 32/73/63 115/74/63
f 48/75/64 64/76/65 63/77/66 47/78/67
f 132/79/68 51/80/69 50/81/70 120/82/71
f 134/83/72 44/84/73 43/85/74 121/86/75
f 131/87/76 52/88/77 51/80/69 132/79/68
f 133/89/78 45/90/79 44/84/73 134/83/72
f 135/91/80 53/92/81 52/88/77 131/87/76
f 136/93/82 46/94/83 45/90/79 133/89/78
f 137/95/84 54/96/85 53/92/81 135/91/80
f 138/97/86 47/78/67 46/94/83 136/93/82
f 139/98/87 55/99/88 54/96/85 137/95/84
f 140/100/89 48/75/64 47/78/67 138/97/86
f 141/101/90 56/102/91 55/99/88 139/98/87
f 142/103/92 49/104/93 48/75/64 140/100/89
f 145/105/94 42/106/95 41/107/96 122/108/97
f 122/108/97 41/107/96 56/102/91 141/101/90
f 120/82/71 50/81/70 49/104/93 142/103/92
f 56/102/91 72/109/98 71/110/99 55/99/88
f 49/104/93 65/111/100 64/76/65 48/75/64
f 42/106/95 58/112/101 57/113/102 41/107/96
f 41/107/96 57/113/102 72/109/98 56/102/91
f 50/81/70 66/114/103 65/111/100 49/104/93
f 43/85/74 59/115/104 58/112/101 42/106/95
f 51/80/69 67/116/105 66/114/103 50/81/70
f 44/84/73 60/117/106 59/115/104 43/85/74
f 52/88/77 68/118/107 67/116/105 51/80/69
f 45/90/79 61/119/108 60/117/106 44/84/73
f 53/92/81 69/120/109 68/118/107 52/88/77
f 46/94/83 62/121/110 61/119/108 45/90/79
f 54/96/85 70/122/111 69/120/109 53/92/81
f 47/78/67 63/77/66 62/121/110 46/94/83
f 55/99/88 71/110/99 70/122/111 54/96/85
f 71/110/99 87/123/112 86/124/113 70/122/111
f 64/76/65 80/125/114 79/126/115 63/77/66
f 72/109/98 88/127/116 87/123/112 71/110/99
f 65/111/100 81/128/117 80/125/114 64/76/65
f 57/113/102 73/129/118 88/127/116 72/109/98
f 66/114/103 82/130/119 81/128/117 65/111/100
f 59/115/104 75/131/120 74/132/121 58/112/101
f 67/116/105 83/133/122 82/130/119 66/114/103
f 60/117/106 76/134/123 75/131/120 59/115/104
f 68/118/107 84/135/124 83/133/122 67/116/105
f 61/119/108 77/136/125 76/134/123 60/117/106
f 69/120/109 85/137/126 84/135/124 68/118/107
f 62/121/110 78/138/127 77/136/125 61/119/108
f 70/122/111 86/124/113 85/137/126 69/120/109
f 63/77/66 79/126/115 78/138/127 62/121/110
f 164/139/128 163/140/129 97/141/130 96/142/131
f 166/143/132 165/144/133 90/145/134 89/146/135
f 167/147/136 166/143/132 89/146/135 104/148/137
f 163/140/129 168/149/138 98/150/139 97/141/130
f 165/144/133 169/151/140 91/152/141 90/145/134
f 168/149/138 170/153/142 99/154/143 98/150/139
f 169/151/140 171/155/144 92/156/145 91/152/141
f 170/153/142 172/157/146 100/158/147 99/154/143
f 171/155/144 173/159/148 93/160/149 92/156/145
f 172/157/146 174/161/150 101/162/151 100/158/147
f 173/159/148 175/163/152 94/164/153 93/160/149
f 174/161/150 176/165/154 102/166/155 101/162/151
f 175/163/152 177/167/156 95/168/157 94/164/153
f 176/165/154 178/169/158 103/170/159 102/166/155
f 177/167/156 164/139/128 96/142/131 95/168/157
f 178/169/158 167/147/136 104/148/137 103/170/159
f 90/145/134 91/152/141 105/171/160
f 91/152/141 92/156/145 105/171/160
f 92/156/145 93/160/149 105/171/160
f 93/160/149 94/164/153 105/171/160
f 94/164/153 95/168/157 105/171/160
f 95/168/157 96/142/131 105/171/160
f 96/142/131 97/141/130 105/171/160
f 97/141/130 98/150/139 105/171/160
f 98/150/139 99/154/143 105/171/160
f 99/154/143 100/158/147 105/171/160
f 100/158/147 101/162/151 105/171/160
f 101/162/151 102/166/155 105/171/160
f 102/166/155 103/170/159 105/171/160
f 103/170/159 104/148/137 105/171/160
f 104/148/137 89/146/135 105/171/160
f 89/146/135 90/145/134 105/171/160
f 33/62/55 35/61/54 154/19/17 153/22/20
f 5/18/11 106/172/56 6/15/15
f 8/7/7 106/173/56 1/13/13
f 4/5/5 106/174/56 5/11/11
f 7/10/10 106/175/56 8/7/7
f 3/3/3 106/176/56 4/5/5
f 6/15/15 106/177/56 7/10/10
f 2/2/2 106/178/56 3/3/3
f 112/179/161 110/180/162 27/181/162 28/182/163 114/183/163
f 31/72/62 111/71/62 109/184/164 107/185/165 30/186/165
f 27/181/162 110/180/162 108/187/166 144/32/28 26/31/28
f 143/188/167 118/189/168 29/190/168 30/186/165 107/185/165
f 117/191/169 115/74/63 32/73/63 25/30/27 146/29/27
f 116/192/170 114/183/163 28/182/163 29/190/168 118/189/168
f 121/86/75 43/85/74 42/106/95 145/105/94
f 156/35/31 158/36/32 36/67/60 35/61/54
f 152/49/44 147/69/39 21/55/38 20/50/45
f 39/64/57 33/62/55 153/22/20 151/47/42
f 38/65/58 40/40/35 152/49/44 150/45/40
f 37/66/59 39/64/57 151/47/42 149/41/36
f 36/67/60 38/65/58 150/45/40 148/33/29
f 34/68/34 37/66/59 149/41/36 147/44/39
f 35/61/54 36/67/60 148/33/29 154/19/17
f 87/123/112 88/127/116 167/147/136 178/169/158
f 79/126/115 80/125/114 164/139/128 177/167/156
f 86/124/113 87/123/112 178/169/158 176/165/154
f 78/138/127 79/126/115 177/167/156 175/163/152
f 85/137/126 86/124/113 176/165/154 174/161/150
f 77/136/125 78/138/127 175/163/152 173/159/148
f 84/135/124 85/137/126 174/161/150 172/157/146
f 76/134/123 77/136/125 173/159/148 171/155/144
f 83/133/122 84/135/124 172/157/146 170/153/142
f 75/131/120 76/134/123 171/155/144 169/151/140
f 82/130/119 83/133/122 170/153/142 168/149/138
f 74/132/121 75/131/120 169/151/140 165/144/133
f 81/128/117 82/130/119 168/149/138 163/140/129
f 88/127/116 73/129/118 166/143/132 167/147/136
f 73/129/118 74/132/121 165/144/133 166/143/132
f 80/125/114 81/128/117 163/140/129 164/139/128
f 7/10/10 15/9/9 14/16/16 6/15/15
f 58/112/101 74/132/121 73/129/118 57/113/102
